{
  "accessors": [
    {
      "name": "core_Cylinder-Mesh_positions",
      "componentType": 5126,
      "count": 1838,
      "min": [
        -0.1373869925737381,
        -19.1020450592041,
        -0.1373869925737381
      ],
      "max": [
        0.1373869925737381,
        1.6153069734573364,
        0.1373869925737381
      ],
      "type": "VEC3",
      "bufferView": 0,
      "byteOffset": 0
    },
    {
      "name": "core_Cylinder-Mesh_normals",
      "componentType": 5126,
      "count": 1838,
      "min": [
        -0.995199978351593,
        -1,
        -0.995199978351593
      ],
      "max": [
        0.995199978351593,
        0.998199999332428,
        0.9979000091552734
      ],
      "type": "VEC3",
      "bufferView": 0,
      "byteOffset": 40512
    },
    {
      "name": "core_Cylinder-Mesh_texcoords",
      "componentType": 5126,
      "count": 1838,
      "min": [
        0,
        0
      ],
      "max": [
        1,
        0.9900000095367432
      ],
      "type": "VEC2",
      "bufferView": 1,
      "byteOffset": 0
    },
    {
      "name": "core_Cylinder-Mesh_0_indices",
      "componentType": 5123,
      "count": 2862,
      "min": [
        0
      ],
      "max": [
        1837
      ],
      "type": "SCALAR",
      "bufferView": 2,
      "byteOffset": 0
    },
    {
      "name": "Cylinder.001-Mesh_positions",
      "componentType": 5126,
      "count": 1538,
      "min": [
        -0.21332600712776184,
        -8.607039451599121,
        -0.21332600712776184
      ],
      "max": [
        0.21332600712776184,
        23.668411254882812,
        0.21332600712776184
      ],
      "type": "VEC3",
      "bufferView": 0,
      "byteOffset": 22056
    },
    {
      "name": "Cylinder.001-Mesh_normals",
      "componentType": 5126,
      "count": 1538,
      "min": [
        -0.995199978351593,
        -1,
        -0.995199978351593
      ],
      "max": [
        0.995199978351593,
        0.886900007724762,
        1
      ],
      "type": "VEC3",
      "bufferView": 0,
      "byteOffset": 62568
    },
    {
      "name": "Cylinder.001-Mesh_texcoords",
      "componentType": 5126,
      "count": 1538,
      "min": [
        0,
        0
      ],
      "max": [
        1,
        0.9900000095367432
      ],
      "type": "VEC2",
      "bufferView": 1,
      "byteOffset": 14704
    },
    {
      "name": "Cylinder.001-Mesh_0_indices",
      "componentType": 5123,
      "count": 2484,
      "min": [
        0
      ],
      "max": [
        1537
      ],
      "type": "SCALAR",
      "bufferView": 2,
      "byteOffset": 5724
    }
  ],
  "asset": {
    "generator": "obj2gltf",
    "version": "2.0"
  },
  "buffers": [
    {
      "name": "pocky_choco1",
      "byteLength": 118724,
      "uri": "data:application/octet-stream;base64,"
    }
  ],
  "bufferViews": [
    {
      "name": "bufferView_0",
      "buffer": 0,
      "byteLength": 81024,
      "byteOffset": 0,
      "byteStride": 12,
      "target": 34962
    },
    {
      "name": "bufferView_1",
      "buffer": 0,
      "byteLength": 27008,
      "byteOffset": 81024,
      "byteStride": 8,
      "target": 34962
    },
    {
      "name": "bufferView_2",
      "buffer": 0,
      "byteLength": 10692,
      "byteOffset": 108032,
      "target": 34963
    }
  ],
  "materials": [
    {
      "name": "Material.003",
      "pbrMetallicRoughness": {
        "baseColorFactor": [
          0.8,
          0.384413,
          0.034748,
          1
        ],
        "metallicFactor": 0,
        "roughnessFactor": 0.775
      },
      "emissiveFactor": [
        0,
        0,
        0
      ],
      "alphaMode": "OPAQUE",
      "doubleSided": false
    },
    {
      "name": "Material.005",
      "pbrMetallicRoughness": {
        "baseColorFactor": [
          0.048247,
          0.016283,
          0.005381,
          1
        ],
        "metallicFactor": 0,
        "roughnessFactor": 0.775
      },
      "emissiveFactor": [
        0,
        0,
        0
      ],
      "alphaMode": "OPAQUE",
      "doubleSided": false
    }
  ],
  "meshes": [
    {
      "name": "core_Cylinder-Mesh",
      "primitives": [
        {
          "attributes": {
            "POSITION": 0,
            "NORMAL": 1,
            "TEXCOORD_0": 2
          },
          "indices": 3,
          "material": 0,
          "mode": 4
        }
      ]
    },
    {
      "name": "Cylinder.001-Mesh",
      "primitives": [
        {
          "attributes": {
            "POSITION": 4,
            "NORMAL": 5,
            "TEXCOORD_0": 6
          },
          "indices": 7,
          "material": 1,
          "mode": 4
        }
      ]
    }
  ],
  "nodes": [
    {
      "name": "core_Cylinder",
      "mesh": 0
    },
    {
      "name": "Cylinder.001",
      "mesh": 1
    }
  ],
  "scene": 0,
  "scenes": [
    {
      "nodes": [
        0,
        1
      ]
    }
  ]
}
