{
  "accessors": [
    {
      "name": "tower_Cylinder-Mesh_positions",
      "componentType": 5126,
      "count": 962,
      "min": [
        -9.97752571105957,
        0.17933699488639832,
        -26.34149742126465
      ],
      "max": [
        9.977519989013672,
        237.6524658203125,
        23.517349243164062
      ],
      "type": "VEC3",
      "bufferView": 0,
      "byteOffset": 0
    },
    {
      "name": "tower_Cylinder-Mesh_normals",
      "componentType": 5126,
      "count": 962,
      "min": [
        -0.995199978351593,
        -1,
        -1
      ],
      "max": [
        0.995199978351593,
        1,
        0.995199978351593
      ],
      "type": "VEC3",
      "bufferView": 0,
      "byteOffset": 11544
    },
    {
      "name": "tower_Cylinder-Mesh_texcoords",
      "componentType": 5126,
      "count": 962,
      "min": [
        0,
        0
      ],
      "max": [
        1,
        1
      ],
      "type": "VEC2",
      "bufferView": 1,
      "byteOffset": 0
    },
    {
      "name": "tower_Cylinder-Mesh_0_indices",
      "componentType": 5123,
      "count": 1974,
      "min": [
        0
      ],
      "max": [
        961
      ],
      "type": "SCALAR",
      "bufferView": 2,
      "byteOffset": 0
    }
  ],
  "asset": {
    "generator": "obj2gltf",
    "version": "2.0"
  },
  "buffers": [
    {
      "name": "tower",
      "byteLength": 34732,
      "uri": "data:application/octet-stream;base64,"
    }
  ],
  "bufferViews": [
    {
      "name": "bufferView_0",
      "buffer": 0,
      "byteLength": 23088,
      "byteOffset": 0,
      "byteStride": 12,
      "target": 34962
    },
    {
      "name": "bufferView_1",
      "buffer": 0,
      "byteLength": 7696,
      "byteOffset": 23088,
      "byteStride": 8,
      "target": 34962
    },
    {
      "name": "bufferView_2",
      "buffer": 0,
      "byteLength": 3948,
      "byteOffset": 30784,
      "target": 34963
    }
  ],
  "materials": [
    {
      "name": "None",
      "pbrMetallicRoughness": {
        "baseColorFactor": [
          0.8,
          0.8,
          0.8,
          1
        ],
        "metallicFactor": 0,
        "roughnessFactor": 0.5
      },
      "emissiveFactor": [
        0,
        0,
        0
      ],
      "alphaMode": "OPAQUE",
      "doubleSided": false
    }
  ],
  "meshes": [
    {
      "name": "tower_Cylinder-Mesh",
      "primitives": [
        {
          "attributes": {
            "POSITION": 0,
            "NORMAL": 1,
            "TEXCOORD_0": 2
          },
          "indices": 3,
          "material": 0,
          "mode": 4
        }
      ]
    }
  ],
  "nodes": [
    {
      "name": "tower_Cylinder",
      "mesh": 0
    }
  ],
  "scene": 0,
  "scenes": [
    {
      "nodes": [
        0
      ]
    }
  ]
}
