{
  "accessors": [
    {
      "name": "Cylinder.001-Mesh_positions",
      "componentType": 5126,
      "count": 1050,
      "min": [
        -77.56423950195312,
        105.05894470214844,
        19.274124145507812
      ],
      "max": [
        141.15060424804688,
        346.03662109375,
        31.282546997070312
      ],
      "type": "VEC3",
      "bufferView": 0,
      "byteOffset": 0
    },
    {
      "name": "Cylinder.001-Mesh_normals",
      "componentType": 5126,
      "count": 1050,
      "min": [
        -1,
        -0.9754999876022339,
        -0.9977999925613403
      ],
      "max": [
        1,
        0.9754999876022339,
        0.998199999332428
      ],
      "type": "VEC3",
      "bufferView": 0,
      "byteOffset": 12600
    },
    {
      "name": "Cylinder.001-Mesh_texcoords",
      "componentType": 5126,
      "count": 1050,
      "min": [
        0,
        0
      ],
      "max": [
        1,
        1
      ],
      "type": "VEC2",
      "bufferView": 1,
      "byteOffset": 0
    },
    {
      "name": "Cylinder.001-Mesh_0_indices",
      "componentType": 5123,
      "count": 1716,
      "min": [
        0
      ],
      "max": [
        1049
      ],
      "type": "SCALAR",
      "bufferView": 2,
      "byteOffset": 0
    }
  ],
  "asset": {
    "generator": "obj2gltf",
    "version": "2.0"
  },
  "buffers": [
    {
      "name": "turbine",
      "byteLength": 37032,
      "uri": "data:application/octet-stream;base64,"
    }
  ],
  "bufferViews": [
    {
      "name": "bufferView_0",
      "buffer": 0,
      "byteLength": 25200,
      "byteOffset": 0,
      "byteStride": 12,
      "target": 34962
    },
    {
      "name": "bufferView_1",
      "buffer": 0,
      "byteLength": 8400,
      "byteOffset": 25200,
      "byteStride": 8,
      "target": 34962
    },
    {
      "name": "bufferView_2",
      "buffer": 0,
      "byteLength": 3432,
      "byteOffset": 33600,
      "target": 34963
    }
  ],
  "materials": [
    {
      "name": "None",
      "pbrMetallicRoughness": {
        "baseColorFactor": [
          0.8,
          0.8,
          0.8,
          1
        ],
        "metallicFactor": 0,
        "roughnessFactor": 0.5
      },
      "emissiveFactor": [
        0,
        0,
        0
      ],
      "alphaMode": "OPAQUE",
      "doubleSided": false
    }
  ],
  "meshes": [
    {
      "name": "Cylinder.001-Mesh",
      "primitives": [
        {
          "attributes": {
            "POSITION": 0,
            "NORMAL": 1,
            "TEXCOORD_0": 2
          },
          "indices": 3,
          "material": 0,
          "mode": 4
        }
      ]
    }
  ],
  "nodes": [
    {
      "name": "Cylinder.001",
      "mesh": 0
    }
  ],
  "scene": 0,
  "scenes": [
    {
      "nodes": [
        0
      ]
    }
  ]
}
